
<svg version="1.1"
	 xmlns="http://www.w3.org/2000/svg" xmlns:xlink="http://www.w3.org/1999/xlink" xmlns:a="http://ns.adobe.com/AdobeSVGViewerExtensions/3.0/"
	 x="0px" y="0px" width="185px" height="174.3px" viewBox="0 0 185 174.3" style="enable-background:new 0 0 185 174.3;"
	 xml:space="preserve">
<style type="text/css">
	.st0{fill:url(#SVGID_1_);}
	.st1{fill:url(#SVGID_2_);}
	.st2{fill:url(#SVGID_3_);}
	.st3{fill:#C1272D;}
	.st4{fill:url(#SVGID_4_);}
	.st5{fill:url(#SVGID_5_);}
	.st6{fill:url(#SVGID_6_);}
</style>
<defs>
</defs>
<linearGradient id="SVGID_1_" gradientUnits="userSpaceOnUse" x1="92.5" y1="109.9649" x2="92.5" y2="78.3281">
	<stop  offset="0" style="stop-color:#FBB03B"/>
	<stop  offset="1" style="stop-color:#FF931E"/>
</linearGradient>
<polygon class="st0" points="51.8,110 0,102.8 46.2,78.3 138.8,78.3 185,102.8 133.2,110 "/>
<linearGradient id="SVGID_2_" gradientUnits="userSpaceOnUse" x1="83.5" y1="159.6043" x2="83.5" y2="40.6886">
	<stop  offset="0" style="stop-color:#FBB03B"/>
	<stop  offset="1" style="stop-color:#F15A24"/>
</linearGradient>
<polygon class="st1" points="47.7,79.5 12.6,40.7 63.8,51.7 134.7,111.1 154.4,159.6 110,131.8 "/>
<linearGradient id="SVGID_3_" gradientUnits="userSpaceOnUse" x1="31.6409" y1="100.1465" x2="173.3591" y2="100.1465">
	<stop  offset="0" style="stop-color:#FBB03B"/>
	<stop  offset="1" style="stop-color:#F15A24"/>
</linearGradient>
<polygon class="st2" points="138.3,79.5 173.4,40.7 122.2,51.7 51.3,111.1 31.6,159.6 76,131.8 "/>
<polygon class="st3" points="108.1,126.7 92.8,174.3 77.4,126.7 63.9,50 62,0 92.8,39.5 123.5,0 121.7,50 "/>
</svg>
