<svg id="Layer_1" data-name="Layer 1" xmlns="http://www.w3.org/2000/svg" viewBox="0 0 50 50"><title>Artboard 1</title><g style="opacity:0.7000000000000001"><path d="M46,4V46H4V4H46m4-4H0V50H50V0Z" style="fill:#f15a24"/></g><g style="opacity:0.7000000000000001"><path d="M36.6,38.28,35.28,35A14.39,14.39,0,0,0,39,28.11l3.74-.52-3.43-1.82c0-.25,0-.51,0-.77a14.36,14.36,0,0,0-1.55-6.47l2.8-3.1-4.18.9A14.53,14.53,0,0,0,31,12l.16-4.45-2.76,3.55a13.74,13.74,0,0,0-6.82,0L18.83,7.5,19,12a14.53,14.53,0,0,0-5.44,4.38l-4.18-.9,2.8,3.1A14.36,14.36,0,0,0,10.62,25c0,.26,0,.52,0,.77L7.23,27.59l3.74.52A14.39,14.39,0,0,0,14.72,35L13.4,38.28l2.92-1.84A14.27,14.27,0,0,0,24,39.32l1,3.18,1-3.18a14.27,14.27,0,0,0,7.66-2.88Z" style="fill:#f15a24"/></g></svg>