<svg xmlns="http://www.w3.org/2000/svg" width="185" height="174.3" viewBox="0 0 185 174.3"><style></style><linearGradient id="SVGID_1_" gradientUnits="userSpaceOnUse" x1="92.5" y1="109.965" x2="92.5" y2="78.328"><stop offset="0" stop-color="#fbb03b"/><stop offset="1" stop-color="#ff931e"/></linearGradient><path fill="url(#SVGID_1_)" d="M51.8 110L0 102.8l46.2-24.5h92.6l46.2 24.5-51.8 7.2z"/><linearGradient id="SVGID_2_" gradientUnits="userSpaceOnUse" x1="83.5" y1="159.604" x2="83.5" y2="40.689"><stop offset="0" stop-color="#fbb03b"/><stop offset="1" stop-color="#f15a24"/></linearGradient><path fill="url(#SVGID_2_)" d="M47.7 79.5L12.6 40.7l51.2 11 70.9 59.4 19.7 48.5-44.4-27.8z"/><linearGradient id="SVGID_3_" gradientUnits="userSpaceOnUse" x1="31.641" y1="100.147" x2="173.359" y2="100.147"><stop offset="0" stop-color="#fbb03b"/><stop offset="1" stop-color="#f15a24"/></linearGradient><path fill="url(#SVGID_3_)" d="M138.3 79.5l35.1-38.8-51.2 11-70.9 59.4-19.7 48.5L76 131.8z"/><path fill="#c1272d" d="M108.1 126.7l-15.3 47.6-15.4-47.6L63.9 50 62 0l30.8 39.5L123.5 0l-1.8 50z"/></svg>
