<?xml version="1.0" standalone="no"?>
<!DOCTYPE svg PUBLIC "-//W3C//DTD SVG 20010904//EN"
 "http://www.w3.org/TR/2001/REC-SVG-20010904/DTD/svg10.dtd">
<svg version="1.0" xmlns="http://www.w3.org/2000/svg"
 width="740.000000pt" height="740.000000pt" viewBox="0 0 740.000000 740.000000"
 preserveAspectRatio="xMidYMid meet">
<metadata>
Created by potrace 1.11, written by Peter Selinger 2001-2013
</metadata>
<g transform="translate(0.000000,740.000000) scale(0.100000,-0.100000)"
fill="#000000" stroke="none">
<path d="M2485 7048 c3 -73 7 -191 10 -263 3 -71 7 -197 10 -280 3 -82 8 -197
10 -255 3 -58 7 -170 10 -250 3 -80 7 -201 10 -270 3 -69 8 -195 11 -280 8
-206 12 -289 18 -322 4 -25 3 -26 -22 -16 -15 5 -38 12 -52 14 -13 3 -56 12
-95 20 -38 9 -79 17 -90 20 -11 2 -31 6 -45 9 -14 4 -36 8 -50 11 -14 3 -32 7
-40 9 -8 2 -31 7 -50 10 -19 3 -53 11 -75 17 -22 5 -49 11 -60 13 -11 1 -42 8
-70 15 -27 6 -57 13 -65 15 -31 6 -105 19 -115 21 -5 0 -17 4 -25 7 -15 5
-139 32 -193 41 -15 3 -37 8 -48 11 -12 4 -31 8 -42 10 -12 1 -44 8 -72 15
-27 6 -60 14 -72 16 -38 7 -77 15 -88 18 -9 3 -62 14 -95 20 -8 2 -26 6 -40 9
-14 4 -36 9 -50 11 -14 3 -59 12 -100 21 -41 10 -84 19 -95 20 -11 2 -54 11
-95 21 -41 9 -84 18 -95 19 -11 2 -40 8 -64 15 -23 6 -45 10 -46 8 -2 -2 15
-24 38 -49 68 -75 190 -210 210 -233 17 -19 104 -116 167 -186 14 -15 62 -68
108 -118 46 -50 91 -99 100 -110 18 -20 132 -147 217 -241 28 -30 66 -72 86
-93 20 -21 35 -38 33 -38 -1 0 25 -30 59 -67 77 -82 118 -127 184 -200 28 -32
72 -80 96 -108 25 -27 45 -50 44 -51 -1 -1 -47 -25 -102 -54 -55 -29 -131 -70
-170 -90 -203 -108 -475 -253 -650 -345 -49 -26 -121 -64 -160 -85 -65 -34
-133 -70 -355 -188 -47 -25 -91 -49 -98 -55 -6 -5 -12 -6 -12 -1 0 5 -4 4 -8
-1 -4 -6 -38 -27 -77 -47 -178 -93 -213 -113 -209 -120 3 -4 15 -7 27 -7 12 1
37 -1 56 -5 19 -4 53 -8 77 -10 23 -2 46 -6 50 -8 5 -2 25 -5 44 -6 19 -1 61
-7 93 -13 33 -6 75 -12 95 -14 21 -2 48 -6 62 -8 14 -3 52 -8 85 -12 32 -4 68
-9 80 -12 11 -2 36 -6 55 -7 40 -4 123 -15 160 -22 14 -3 45 -7 70 -10 25 -3
56 -7 70 -9 14 -2 39 -5 55 -8 17 -4 51 -8 77 -11 26 -3 62 -8 80 -11 81 -11
106 -14 153 -20 28 -4 57 -8 65 -10 8 -2 42 -7 75 -11 83 -10 100 -12 100 -14
0 -1 14 -3 30 -5 37 -4 111 -14 145 -20 14 -3 48 -7 75 -10 28 -3 68 -8 90
-12 50 -8 74 -11 100 -13 18 -1 18 -2 -5 -15 -14 -8 -20 -15 -15 -15 6 0 5 -4
-2 -8 -12 -8 -163 -368 -163 -389 0 -7 -4 -13 -10 -13 -5 0 -9 -3 -8 -8 0 -4
-3 -16 -7 -27 -4 -11 -27 -67 -50 -125 -23 -58 -46 -114 -50 -125 -5 -11 -9
-22 -10 -25 -1 -3 -6 -16 -12 -30 -6 -14 -34 -83 -63 -155 -29 -71 -60 -148
-70 -170 -17 -37 -28 -69 -30 -80 -1 -2 -12 -30 -26 -61 -14 -31 -76 -183
-139 -338 -62 -155 -123 -303 -134 -329 -29 -67 -27 -74 13 -43 19 14 37 26
41 26 3 0 36 20 73 44 37 24 71 44 76 44 5 0 12 4 15 9 5 8 100 70 149 98 58
33 258 161 260 167 2 5 8 8 14 8 6 0 37 18 70 40 33 22 63 40 66 40 3 0 20 11
38 25 18 14 35 25 38 25 2 0 39 23 80 50 42 28 78 50 80 50 5 0 279 172 350
219 21 14 47 30 57 36 10 5 49 29 86 53 37 23 77 48 88 55 11 6 39 24 62 40
23 15 44 27 48 27 3 0 37 24 74 54 l67 54 55 -166 c29 -92 54 -169 55 -172 0
-3 3 -12 7 -20 3 -8 42 -130 87 -270 45 -140 107 -331 137 -425 30 -93 61
-190 69 -215 8 -25 17 -52 21 -60 8 -18 7 -17 17 -60 5 -19 12 -41 17 -50 9
-16 50 -143 53 -163 1 -7 4 -16 7 -22 4 -5 14 -38 24 -72 11 -35 22 -63 26
-63 5 0 133 378 144 425 1 5 5 17 8 25 3 8 38 116 77 240 39 124 87 270 105
325 18 55 57 174 85 265 29 91 64 199 77 240 14 41 26 80 27 85 4 23 49 151
55 157 4 4 24 -9 46 -28 36 -33 86 -69 140 -101 11 -6 74 -46 140 -88 66 -42
129 -81 140 -88 10 -7 52 -33 92 -59 40 -26 73 -44 73 -40 0 4 4 2 8 -3 4 -6
52 -38 107 -73 55 -34 107 -66 115 -72 8 -5 121 -76 250 -156 129 -81 251
-157 270 -169 45 -30 118 -75 151 -95 45 -27 162 -100 224 -140 81 -53 116
-72 121 -67 3 3 -6 29 -19 58 -36 82 -67 159 -85 212 -9 26 -19 47 -24 47 -4
0 -8 8 -8 18 0 11 -6 32 -14 48 -8 16 -42 99 -76 184 -34 85 -68 169 -75 185
-31 71 -126 307 -150 368 -13 37 -29 75 -35 84 -9 17 -98 238 -104 258 -1 6
-8 24 -16 40 -7 17 -16 40 -21 53 -5 12 -13 32 -19 45 -39 88 -122 294 -122
305 -1 7 -14 24 -30 38 -16 13 -28 24 -26 25 32 7 94 17 154 24 28 3 61 7 73
10 13 2 49 7 80 11 31 3 65 8 76 10 11 3 40 7 65 10 25 3 71 9 104 14 32 5 61
9 65 8 3 0 8 1 11 2 10 4 38 8 96 14 32 4 86 11 119 16 33 5 83 12 110 15 28
4 59 9 70 10 11 2 44 6 74 10 30 4 61 8 70 10 9 1 39 6 66 9 28 4 61 8 75 11
14 2 41 6 60 9 19 3 89 12 155 21 229 32 267 37 295 40 14 2 42 6 63 9 71 11
112 18 135 20 38 5 34 10 -31 44 -34 18 -107 56 -162 85 -247 132 -304 162
-360 191 -33 17 -62 33 -65 36 -3 3 -30 17 -60 32 -30 15 -95 49 -145 76 -161
86 -368 195 -440 232 -38 19 -72 37 -75 40 -3 3 -27 16 -55 30 -27 13 -67 35
-87 47 -21 13 -44 23 -52 23 -8 0 -16 4 -18 9 -1 5 -54 34 -116 66 -62 31
-114 60 -116 64 -3 4 16 29 41 56 57 63 109 120 199 221 40 43 87 95 105 115
33 35 156 172 188 208 27 31 164 182 201 221 19 21 60 66 90 100 30 34 75 83
98 109 24 25 72 77 105 115 34 38 76 84 92 101 17 18 53 59 82 91 28 33 74 83
102 113 28 30 50 56 48 57 -2 2 -71 -10 -122 -21 -11 -2 -74 -16 -140 -30
-146 -32 -150 -33 -150 -35 0 -1 -11 -3 -25 -5 -28 -4 -63 -11 -150 -30 -14
-4 -36 -8 -50 -11 -13 -3 -56 -12 -95 -20 -38 -9 -81 -18 -95 -20 -14 -3 -33
-7 -42 -10 -10 -3 -30 -8 -45 -10 -16 -3 -89 -19 -163 -35 -74 -16 -148 -32
-163 -35 -16 -2 -66 -13 -110 -23 -45 -11 -95 -22 -112 -25 -16 -2 -61 -12
-100 -21 -38 -9 -81 -18 -95 -20 -14 -3 -36 -8 -50 -11 -45 -11 -133 -29 -190
-40 -33 -7 -129 -30 -159 -40 -14 -4 -22 -3 -18 2 10 16 18 112 22 269 3 83 7
202 9 265 3 63 8 192 11 285 3 94 7 226 10 295 3 69 8 186 10 260 3 74 7 200
10 280 3 80 7 207 10 283 l4 137 -36 -47 c-67 -87 -167 -218 -180 -233 -14
-16 -302 -387 -337 -433 -11 -16 -26 -34 -31 -40 -6 -7 -26 -32 -45 -57 -19
-25 -38 -46 -42 -48 -5 -2 -8 -10 -8 -17 0 -7 -4 -15 -8 -17 -4 -1 -48 -55
-97 -118 -50 -63 -95 -122 -102 -130 -6 -8 -57 -73 -112 -145 -55 -71 -104
-134 -108 -140 -5 -5 -34 -42 -65 -82 l-56 -72 -58 75 c-33 42 -66 84 -74 94
-8 10 -26 33 -40 51 -14 18 -30 37 -35 43 -6 6 -22 27 -35 46 -24 34 -44 59
-65 84 -5 6 -30 38 -55 71 -25 33 -49 65 -55 71 -5 6 -21 25 -35 43 -36 46
-119 153 -133 171 -7 8 -91 116 -187 240 -96 124 -177 227 -180 230 -3 3 -25
32 -50 65 -25 33 -49 65 -55 72 -5 7 -14 18 -20 25 -5 7 -26 33 -46 58 -20 25
-52 66 -72 93 l-36 47 4 -132z"/>
</g>
</svg>
